<svg viewBox="0 0 1376 244" fill="none" xmlns="http://www.w3.org/2000/svg">
<path fill-rule="evenodd" clip-rule="evenodd" d="M635.251 121.022C631.988 133.366 628.521 145.627 624.851 157.808C621.18 169.988 617.306 182.25 613.227 194.593H584.842C581.906 187.772 578.725 179.652 575.299 170.232C571.873 160.812 568.325 150.54 564.654 139.415C560.984 128.29 557.232 116.516 553.398 104.092C549.564 91.6673 545.853 79.1214 542.264 66.4536H580.682C581.987 72.3003 583.415 78.6747 584.964 85.5771C586.514 92.4794 588.146 99.5847 589.859 106.893C591.571 114.201 593.366 121.55 595.242 128.94C597.118 136.329 599.035 143.435 600.992 150.256C603.113 143.11 605.193 135.802 607.232 128.331C609.272 120.86 611.229 113.511 613.105 106.284C614.981 99.0568 616.776 92.0734 618.489 85.3334C620.201 78.5935 621.71 72.3003 623.016 66.4536H649.443C650.748 72.3003 652.217 78.5935 653.848 85.3334C655.479 92.0734 657.192 99.0568 658.987 106.284C660.781 113.511 662.657 120.86 664.615 128.331C666.572 135.802 668.612 143.11 670.732 150.256C672.69 143.435 674.647 136.329 676.605 128.94C678.563 121.55 680.398 114.201 682.111 106.893C683.824 99.5847 685.455 92.4794 687.005 85.5771C688.555 78.6747 689.982 72.3003 691.287 66.4536H729.216C725.627 79.1214 721.916 91.6673 718.082 104.092C714.248 116.516 710.496 128.29 706.826 139.415C703.155 150.54 699.566 160.812 696.059 170.232C692.551 179.652 689.33 187.772 686.393 194.593H658.008C653.929 182.25 649.933 169.988 646.017 157.808C642.102 145.627 638.513 133.366 635.251 121.022ZM742.674 131.498C742.674 120.129 744.428 110.182 747.935 101.655C751.443 93.129 756.051 86.0237 761.761 80.3394C767.471 74.6551 774.037 70.3514 781.46 67.428C788.882 64.5047 796.509 63.043 804.339 63.043C822.61 63.043 837.047 68.6054 847.651 79.7304C858.255 90.8554 863.557 107.218 863.557 128.818C863.557 130.929 863.475 133.244 863.312 135.761C863.149 138.278 862.986 140.511 862.823 142.46H780.114C780.929 149.931 784.437 155.859 790.636 160.244C796.835 164.629 805.155 166.821 815.595 166.821C822.284 166.821 828.85 166.212 835.294 164.994C841.738 163.776 846.999 162.274 851.077 160.488L855.971 189.964C854.013 190.939 851.403 191.913 848.141 192.888C844.878 193.862 841.248 194.715 837.251 195.446C833.255 196.177 828.972 196.786 824.405 197.273C819.837 197.76 815.269 198.004 810.701 198.004C799.119 198.004 789.045 196.298 780.481 192.888C771.916 189.477 764.82 184.808 759.192 178.88C753.564 172.952 749.404 165.928 746.712 157.808C744.02 149.687 742.674 140.917 742.674 131.498ZM828.32 117.612C828.157 114.526 827.627 111.522 826.729 108.598C825.832 105.675 824.445 103.076 822.569 100.803C820.693 98.529 818.328 96.6614 815.473 95.1997C812.618 93.738 809.07 93.0072 804.829 93.0072C800.75 93.0072 797.243 93.6974 794.306 95.0779C791.37 96.4584 788.923 98.2854 786.965 100.559C785.008 102.833 783.499 105.472 782.438 108.477C781.378 111.481 780.603 114.526 780.114 117.612H828.32ZM969.268 98.6103C966.005 97.7982 962.171 96.9456 957.767 96.0523C953.362 95.1591 948.631 94.7125 943.574 94.7125C941.29 94.7125 938.558 94.9155 935.377 95.3215C932.195 95.7275 929.789 96.1741 928.158 96.6614V194.593H891.697V73.2747C898.223 71.001 905.931 68.8491 914.822 66.819C923.713 64.7889 933.623 63.7739 944.553 63.7739C946.51 63.7739 948.876 63.8957 951.649 64.1393C954.423 64.3829 957.196 64.7077 959.969 65.1137C962.742 65.5197 965.516 66.007 968.289 66.5754C971.062 67.1438 973.428 67.834 975.385 68.6461L969.268 98.6103ZM1077.43 129.549C1077.43 106.162 1068.78 94.4689 1051.49 94.4689C1047.74 94.4689 1044.02 94.9561 1040.35 95.9305C1036.68 96.905 1033.71 98.123 1031.42 99.5847V165.603C1033.22 165.928 1035.5 166.212 1038.27 166.456C1041.05 166.7 1044.06 166.821 1047.33 166.821C1057.28 166.821 1064.78 163.411 1069.84 156.59C1074.9 149.769 1077.43 140.755 1077.43 129.549ZM1114.62 130.523C1114.62 140.755 1113.11 150.012 1110.09 158.295C1107.08 166.578 1102.71 173.642 1097 179.489C1091.29 185.336 1084.28 189.843 1075.96 193.01C1067.64 196.177 1058.18 197.76 1047.57 197.76C1043.17 197.76 1038.56 197.557 1033.75 197.151C1028.93 196.745 1024.2 196.217 1019.55 195.568C1014.9 194.918 1010.46 194.146 1006.22 193.253C1001.98 192.36 998.224 191.426 994.961 190.452V11.3974L1031.42 5.55078V69.3769C1035.5 67.5904 1039.74 66.21 1044.15 65.2355C1048.55 64.2611 1053.28 63.7739 1058.34 63.7739C1067.47 63.7739 1075.55 65.3573 1082.56 68.5243C1089.58 71.6912 1095.45 76.198 1100.18 82.0447C1104.91 87.8914 1108.5 94.9155 1110.95 103.117C1113.4 111.319 1114.62 120.454 1114.62 130.523ZM1263.15 130.28C1263.15 140.349 1261.69 149.566 1258.75 157.93C1255.81 166.294 1251.57 173.439 1246.02 179.367C1240.48 185.295 1233.83 189.883 1226.08 193.131C1218.33 196.38 1209.65 198.004 1200.02 198.004C1190.56 198.004 1181.95 196.38 1174.2 193.131C1166.46 189.883 1159.81 185.295 1154.26 179.367C1148.72 173.439 1144.39 166.294 1141.29 157.93C1138.19 149.566 1136.64 140.349 1136.64 130.28C1136.64 120.21 1138.23 111.034 1141.42 102.752C1144.6 94.4688 1149 87.4042 1154.63 81.5575C1160.26 75.7108 1166.95 71.1634 1174.69 67.9152C1182.44 64.6671 1190.89 63.043 1200.02 63.043C1209.32 63.043 1217.84 64.6671 1225.59 67.9152C1233.34 71.1634 1239.99 75.7108 1245.54 81.5575C1251.08 87.4042 1255.4 94.4688 1258.5 102.752C1261.6 111.034 1263.15 120.21 1263.15 130.28ZM1225.96 130.28C1225.96 119.074 1223.72 110.263 1219.23 103.848C1214.74 97.4328 1208.34 94.2253 1200.02 94.2253C1191.7 94.2253 1185.26 97.4328 1180.69 103.848C1176.12 110.263 1173.84 119.074 1173.84 130.28C1173.84 141.486 1176.12 150.378 1180.69 156.955C1185.26 163.533 1191.7 166.821 1200.02 166.821C1208.34 166.821 1214.74 163.533 1219.23 156.955C1223.72 150.378 1225.96 141.486 1225.96 130.28ZM1290.07 34.5405L1326.53 28.6938V66.4536H1370.33V96.6614H1326.53V141.729C1326.53 149.363 1327.88 155.453 1330.57 160C1333.26 164.548 1338.68 166.821 1346.84 166.821C1350.76 166.821 1354.79 166.456 1358.95 165.725C1363.11 164.994 1366.91 163.979 1370.33 162.68L1375.47 190.939C1371.07 192.725 1366.17 194.268 1360.79 195.568C1355.41 196.867 1348.8 197.516 1340.97 197.516C1331.02 197.516 1322.78 196.177 1316.25 193.497C1309.73 190.817 1304.51 187.082 1300.59 182.291C1296.68 177.5 1293.95 171.694 1292.4 164.873C1290.85 158.051 1290.07 150.499 1290.07 142.217V34.5405Z" fill="#313131"/>
<path fill-rule="evenodd" clip-rule="evenodd" d="M90.7523 241.282L1.08685 86.9482H97.2735L138.574 157.594L90.7523 241.282Z" fill="#F6C90C"/>
<path fill-rule="evenodd" clip-rule="evenodd" d="M373.878 241.825L461.913 86.9482H365.727L324.426 156.507L373.878 241.825Z" fill="#F6C90C"/>
<path d="M274.938 243.455L232.043 169.449L189.149 243.455H91.2958L183.117 86.9482H280.952L372.791 243.455H274.938Z" fill="#F6C90C"/>
<path d="M48.1734 0L0 84.7747H463L414.827 0H48.1734Z" fill="#F6C90C"/>
</svg>
